PathFileType	4	(X/Y/Z)	./resultDataOpenSim/trcMotMarkerGrf/sub09/qtm-13-02.trc
DataRate	CameraRate	NumFrames	NumMarkers	Units	OrigDataRate	OrigDataStartFrame	OrigNumFrames
250.000000	250.000000	14	24	m	250.000000	1	523
Frame#	Time	L.Toe.Tip			R.Toe.Tip			L.Ankle.Lat			R.Ankle.Lat			L.Ankle.Med			R.Ankle.Med			L.Heel			R.Heel			L.Knee.Lat			R.Knee.Lat			L.Knee.Med			R.Knee.Med			L.Thigh.Upper			R.Thigh.Upper			L.ASIS			R.ASIS			V.Sacral			L.Acromium			R.Acromium			C7			L.Elbow			R.Elbow			L.Wrist.Lat			R.Wrist.Lat
		X1	Y1	Z1	X2	Y2	Z2	X3	Y3	Z3	X4	Y4	Z4	X5	Y5	Z5	X6	Y6	Z6	X7	Y7	Z7	X8	Y8	Z8	X9	Y9	Z9	X10	Y10	Z10	X11	Y11	Z11	X12	Y12	Z12	X13	Y13	Z13	X14	Y14	Z14	X15	Y15	Z15	X16	Y16	Z16	X17	Y17	Z17	X18	Y18	Z18	X19	Y19	Z19	X20	Y20	Z20	X21	Y21	Z21	X22	Y22	Z22	X23	Y23	Z23	X24	Y24	Z24

1	0	-1.5652824	0.036938027	-0.049234991	-0.93676902	0.096713816	0.067889323	-1.7112455	0.088124746	-0.07705594	-1.0859791	0.073021778	0.092155113	-1.6799407	0.098059745	0.016614341	-1.0749178	0.11550031	0.0033783194	NaN	NaN	NaN	-1.1353252	0.03243745	0.035607837	-1.5463248	0.47296245	-0.13872396	-1.1668725	0.52381124	0.14158498	-1.5377431	0.47162785	-0.013228706	-1.1686736	0.50618835	0.01530613	-1.4341661	0.87671347	-0.18292752	-1.3770499	0.87012159	0.18557148	-1.3229486	0.94775678	-0.1385564	-1.2988471	0.95524477	0.10448988	-1.471908	1.0118771	0.0073114316	-1.2911068	1.402674	-0.17546344	-1.3199477	1.4187773	0.15059745	-1.3629035	1.4625379	-0.013657308	-1.4204991	1.0487647	-0.24793419	NaN	NaN	NaN	-1.1867417	0.91049105	-0.23134212	-1.376603	0.85383998	0.29358276
2	0.004	-1.5652193	0.036922181	-0.049281459	-0.92060616	0.10026429	0.06804244	-1.710861	0.089044721	-0.077098366	-1.0700622	0.073415364	0.092043629	-1.6793274	0.098772629	0.016473629	-1.0596165	0.11634365	0.0033340082	NaN	NaN	NaN	-1.1184588	0.031998691	0.035369714	-1.543815	0.47298406	-0.13888537	-1.161046	0.52226783	0.14174156	-1.5354883	0.47152051	-0.013273834	-1.1625156	0.50477194	0.015240732	-1.4287933	0.87586823	-0.18255891	-1.3705391	0.86855604	0.18585785	-1.3172751	0.94653582	-0.13858735	-1.2925357	0.95371236	0.10444761	-1.4660617	1.0105781	0.0077675285	-1.2853283	1.4014528	-0.17518637	-1.314435	1.4174232	0.15085074	-1.3577069	1.4613642	-0.013670423	-1.4142545	1.0473519	-0.24824992	NaN	NaN	NaN	-1.1794973	0.91067441	-0.23095688	-1.3720735	0.85236029	0.29394737
3	0.008	-1.5651534	0.036912011	-0.049330127	-0.90479724	0.10394219	0.068220541	-1.7104741	0.089985646	-0.077148654	-1.0543518	0.073878322	0.091913361	-1.6786563	0.099509417	0.016314302	-1.0445121	0.11724978	0.0033207867	NaN	NaN	NaN	-1.101756	0.031644019	0.035229697	-1.5412474	0.47301593	-0.13901819	-1.1552593	0.52071133	0.14187432	-1.5330257	0.47144006	-0.013336001	-1.1563934	0.5033346	0.015196655	-1.423426	0.87500786	-0.18221259	-1.3641227	0.86696619	0.18605361	-1.3115797	0.9453227	-0.13861994	-1.2862156	0.95219006	0.10438329	-1.4601973	1.0092256	0.0081773728	-1.2795413	1.400234	-0.17491503	-1.308905	1.4160735	0.1511136	-1.3524155	1.4601524	-0.013552918	-1.4079802	1.0459155	-0.2485079	NaN	NaN	NaN	-1.1722657	0.91085031	-0.23056783	-1.3675354	0.85089368	0.29431248
4	0.012	-1.5650839	0.036909493	-0.049381385	-0.8895676	0.10776579	0.068434808	-1.7100735	0.090963408	-0.077217809	-1.0389882	0.074445908	0.091771647	-1.6779107	0.10029255	0.016129384	-1.0297402	0.1182525	0.003338849	NaN	NaN	NaN	-1.0853053	0.031408673	0.035267353	-1.5386064	0.47305079	-0.13908023	-1.1494818	0.51913674	0.14199058	-1.530267	0.47139347	-0.013423258	-1.1503152	0.50186955	0.015172766	-1.4180885	0.87413817	-0.18192193	-1.3577887	0.86534619	0.18614273	-1.3058457	0.9441234	-0.13864849	-1.2798578	0.95068029	0.10428969	-1.4543027	1.007819	0.0085456557	-1.2737268	1.3990217	-0.17463737	-1.3033373	1.4147301	0.15139263	-1.3469659	1.4589187	-0.013301816	-1.4016996	1.0444173	-0.24879496	NaN	NaN	NaN	-1.1650465	0.91100694	-0.23017575	-1.3629676	0.84943697	0.29467224
5	0.016	-1.565012	0.036912615	-0.049434829	-0.87496564	0.1116572	0.06865584	-1.7096234	0.091986682	-0.077323757	-1.0240457	0.075127463	0.091644439	-1.6771269	0.10112731	0.015918492	-1.0153936	0.1193495	0.003371292	NaN	NaN	NaN	-1.069168	0.031283623	0.035510495	-1.5359316	0.47307022	-0.13901	-1.1436552	0.51754349	0.14211253	-1.5272238	0.47136865	-0.013541828	-1.1442746	0.50038209	0.015152583	-1.4127892	0.87327777	-0.18169847	-1.3514991	0.86371119	0.18616207	-1.3000787	0.94294949	-0.13867231	-1.2734443	0.94918553	0.10417729	-1.448379	1.0064009	0.0089155145	-1.2678769	1.3978266	-0.17433825	-1.2977222	1.4133993	0.15168809	-1.3413802	1.4576875	-0.013022881	-1.395507	1.042837	-0.24932969	NaN	NaN	NaN	-1.157849	0.91113118	-0.22978165	-1.3583598	0.84797704	0.29501917
6	0.02	-1.564935	0.036918591	-0.0494916	-0.8608984	0.11551984	0.068825636	-1.7090662	0.093065396	-0.077490153	-1.0095315	0.075920128	0.0915411	-1.6763559	0.10200578	0.015680001	-1.0015085	0.12051943	0.0034029545	NaN	NaN	NaN	-1.0534089	0.031263632	0.03588567	-1.533255	0.47306336	-0.1387732	-1.1377626	0.51593772	0.14224801	-1.5239533	0.47134226	-0.013695424	-1.1382537	0.49887819	0.015126659	-1.4074807	0.87243091	-0.18149312	-1.3452441	0.86208175	0.18614656	-1.2942904	0.941812	-0.13870115	-1.2669714	0.94770976	0.1040623	-1.4424251	1.0049953	0.0093076048	-1.2619927	1.3966594	-0.1740203	-1.2920618	1.4120851	0.15199896	-1.3357236	1.4564527	-0.012804622	-1.3894669	1.0411975	-0.25024761	NaN	NaN	NaN	-1.1506811	0.91121672	-0.22938739	-1.3537054	0.84650596	0.29535208
7	0.024	-1.5648467	0.03692743	-0.049554347	-0.84727375	0.11927544	0.068904836	-1.7083656	0.094211886	-0.077734799	-0.99535413	0.076832595	0.091484126	-1.6756196	0.10293696	0.015411542	-0.98808124	0.12173625	0.0034215181	NaN	NaN	NaN	-1.0381162	0.031356579	0.03625129	-1.5305244	0.4730351	-0.13844822	-1.131855	0.51433783	0.14239057	-1.5205327	0.47129074	-0.013873907	-1.1322421	0.49736894	0.015100585	-1.4020981	0.87158852	-0.18122149	-1.3389749	0.86047131	0.18612619	-1.2884844	0.94071314	-0.13874087	-1.260453	0.94625792	0.10395347	-1.4364414	1.0035931	0.0097002073	-1.2560794	1.3955215	-0.17369723	-1.2863719	1.4107852	0.15232586	-1.3300306	1.4552131	-0.012628179	-1.3835034	1.0395689	-0.25135579	NaN	NaN	NaN	-1.1435462	0.91126599	-0.22899707	-1.3489944	0.84503074	0.29567605
8	0.028	-1.564742	0.036941727	-0.049624834	-0.83408452	0.12288734	0.068898067	-1.7075494	0.095428687	-0.078058811	-0.98123656	0.077931045	0.091588504	-1.6749206	0.10395381	0.015109431	-0.97509447	0.12297332	0.0034169821	NaN	NaN	NaN	-1.0233577	0.031544644	0.036522997	-1.5276093	0.47299742	-0.13819942	-1.1259854	0.51275972	0.14253359	-1.5170126	0.47120361	-0.01405701	-1.126248	0.49587098	0.01508345	-1.3966105	0.87074402	-0.1808383	-1.332563	0.85888052	0.18614803	-1.2826487	0.93964642	-0.13878145	-1.2539088	0.94483453	0.10385059	-1.4304324	1.0021867	0.010063667	-1.2501353	1.3944042	-0.17337249	-1.280665	1.4094975	0.1526679	-1.324295	1.4539886	-0.01241279	-1.3774413	1.0380383	-0.25224564	NaN	NaN	NaN	-1.1364449	0.91128324	-0.22860832	-1.3442217	0.84356156	0.29599699
9	0.032	-1.5646199	0.036962398	-0.049702643	-0.82138927	0.12635633	0.068834976	-1.7067061	0.096693843	-0.078442118	-0.9668747	0.079296821	0.092004876	-1.6742506	0.10505664	0.014768936	-0.96253206	0.12420203	0.0033850117	NaN	NaN	NaN	-1.0091493	0.03178244	0.036719134	-1.5244014	0.47295725	-0.13812787	-1.1201176	0.51121334	0.14268038	-1.5134058	0.47108368	-0.014229196	-1.1202831	0.49439646	0.015077156	-1.3910342	0.86989519	-0.18037735	-1.3258817	0.8573024	0.18626633	-1.2767622	0.93860237	-0.1388025	-1.2473448	0.9434426	0.10375373	-1.4244	1.0007789	0.01038036	-1.2441488	1.3933005	-0.17303548	-1.2749383	1.4082228	0.15302309	-1.3185085	1.4527863	-0.012126404	-1.3711825	1.0366461	-0.25270111	NaN	NaN	NaN	-1.1293786	0.91126853	-0.22821507	-1.339392	0.84210175	0.29631612
10	0.036	-1.5644828	0.036986198	-0.049786382	-0.80923751	0.12967166	0.068732297	-1.7059399	0.097973538	-0.078845952	-0.95240426	0.080859121	0.092687347	-1.6735333	0.10617304	0.014388785	-0.95038172	0.12539312	0.0033276991	NaN	NaN	NaN	-0.99548463	0.032034288	0.036882653	-1.520884	0.47291603	-0.13821124	-1.1141274	0.50972004	0.14285186	-1.5097032	0.47093893	-0.014385914	-1.1143193	0.49294824	0.015084831	-1.3854043	0.8690446	-0.17991301	-1.3188897	0.85573306	0.18650588	-1.2708161	0.93757172	-0.13879224	-1.2407616	0.94208412	0.10367051	-1.4183362	0.99937315	0.010649162	-1.2381117	1.3922121	-0.17267604	-1.2691753	1.4069627	0.15339052	-1.3126773	1.4515906	-0.011799201	-1.364772	1.0353654	-0.25282967	-1.4301596	1.089138	0.24981475	-1.1223483	0.91121871	-0.22781955	-1.3345147	0.84065411	0.29663258
11	0.04	-1.5643348	0.037008861	-0.049875292	-0.79763614	0.13277948	0.068579662	-1.7052983	0.099257536	-0.07923922	-0.9385092	0.082347215	0.093321741	-1.6726674	0.10723717	0.013970659	-0.93864618	0.1265193	0.0032466457	NaN	NaN	NaN	-0.98239799	0.032288825	0.036983898	-1.5171066	0.47287336	-0.138376	-1.1079027	0.50831359	0.14307851	-1.5058867	0.47077437	-0.014529604	-1.1082645	0.49152992	0.015127509	-1.3797358	0.8681987	-0.17949109	-1.3116611	0.85417897	0.18683664	-1.264823	0.9365453	-0.1387592	-1.2341743	0.94075889	0.10360917	-1.4122263	0.99798174	0.010891476	-1.2320301	1.3911466	-0.172291	-1.2633606	1.4057192	0.15376895	-1.3068073	1.4503934	-0.011455656	-1.358304	1.0341515	-0.25283859	-1.4244116	1.0878678	0.24976882	-1.1153509	0.91113337	-0.22742807	-1.3295905	0.83922189	0.29694945
12	0.044	-1.5641778	0.037029383	-0.049969866	-0.7865803	0.13560291	0.068364114	-1.7047136	0.10057063	-0.079635563	-0.92582968	0.083507541	0.093587297	-1.6716711	0.10828033	0.013513212	-0.92734193	0.12755349	0.003139909	NaN	NaN	NaN	-0.97002812	0.032564212	0.036843634	-1.5131304	0.47282401	-0.13856119	-1.1014432	0.5070121	0.14336911	-1.5019489	0.4705852	-0.014664431	-1.1020187	0.49016205	0.015236268	-1.3740122	0.86735867	-0.17910302	-1.3043504	0.85265498	0.18719165	-1.2587995	0.93551749	-0.13872101	-1.2276091	0.93946311	0.10357069	-1.4060572	0.99661945	0.011134598	-1.2259199	1.3901113	-0.17187779	-1.2574954	1.4044934	0.15415843	-1.3009033	1.4492025	-0.011098319	-1.3518397	1.0329824	-0.25285765	-1.4186381	1.0866119	0.2497381	-1.1083809	0.91101817	-0.22703996	-1.3246066	0.83780243	0.29727041
13	0.048	-1.5640101	0.037049715	-0.050071252	-0.77608376	0.13807135	0.068103209	-1.7040506	0.10194943	-0.080084924	-0.91448495	0.084300411	0.093370872	-1.6706566	0.10938003	0.013014031	-0.91651457	0.1284603	0.0030018399	NaN	NaN	NaN	-0.9586327	0.032914803	0.036130731	-1.509006	0.47275855	-0.13873589	-1.0948838	0.5057986	0.14367647	-1.4978964	0.47036338	-0.014794866	-1.0955583	0.48888267	0.015419364	-1.3682044	0.86652123	-0.17871211	-1.2970814	0.85117637	0.18752072	-1.2527387	0.93448956	-0.13868395	-1.2210796	0.93819373	0.1035573	-1.3998185	0.99528679	0.011387384	-1.2197962	1.3891074	-0.17143702	-1.2515942	1.4032847	0.15456359	-1.2949712	1.4480232	-0.010725991	-1.3453959	1.0318556	-0.2529187	-1.4127809	1.085382	0.24973233	-1.1014362	0.9108792	-0.22665143	-1.3195557	0.8363929	0.29759531
14	0.052	-1.5638302	0.03707125	-0.05018031	-0.76617473	0.14013078	0.067843994	-1.7032342	0.10341357	-0.08062169	-0.90424579	0.084834488	0.092723833	-1.6696845	0.11056758	0.012476819	-0.90629692	0.12918867	0.0028165538	NaN	NaN	NaN	-0.94841415	0.033363535	0.034613669	-1.5047679	0.47267035	-0.13890139	-1.0884313	0.5046447	0.14389911	-1.4937296	0.47010893	-0.014929648	-1.0889366	0.48772707	0.015646501	-1.3622927	0.86568644	-0.17828926	-1.2898864	0.84975372	0.1878167	-1.2466102	0.93346564	-0.13863835	-1.2145716	0.93695348	0.10357932	-1.3935116	0.99397216	0.01163028	-1.2136696	1.3881297	-0.17098067	-1.2456697	1.4020935	0.15498859	-1.2890101	1.4468486	-0.010329752	-1.3389614	1.0307719	-0.25298876	-1.4068024	1.0841843	0.24974983	-1.0945226	0.91071521	-0.22626546	-1.3144433	0.83499993	0.29792419
